<?xml version="1.0" standalone="no"?>
<!DOCTYPE svg PUBLIC "-//W3C//DTD SVG 20010904//EN"
 "http://www.w3.org/TR/2001/REC-SVG-20010904/DTD/svg10.dtd">
<svg version="1.0" xmlns="http://www.w3.org/2000/svg"
 width="632.000000pt" height="632.000000pt" viewBox="0 0 632.000000 632.000000"
 preserveAspectRatio="xMidYMid meet">
<metadata>
Created by potrace 1.14, written by Peter Selinger 2001-2017
</metadata>
<g transform="translate(0.000000,632.000000) scale(0.100000,-0.100000)"
fill="#000000" stroke="none">
<path d="M0 5938 c0 -73 2 -84 18 -84 49 -2 180 -14 197 -17 11 -3 41 -8 68
-11 26 -4 58 -11 71 -16 13 -5 26 -7 28 -5 2 2 33 -10 68 -28 115 -58 168
-160 188 -367 10 -102 7 -4336 -3 -4415 -5 -38 -9 -80 -9 -92 -1 -13 -5 -23
-9 -23 -5 0 -6 -4 -3 -8 8 -14 -39 -139 -70 -183 -36 -53 -78 -87 -139 -115
-87 -40 -267 -77 -377 -78 l-28 0 0 -84 0 -83 128 8 c161 10 1122 10 1305 0
l137 -7 0 80 c0 44 -3 81 -7 81 -9 2 -53 6 -143 13 -36 3 -76 8 -90 12 -14 3
-37 7 -52 9 -64 9 -156 38 -223 72 -41 21 -145 131 -145 154 0 10 -4 20 -9 24
-9 5 -32 96 -46 180 -3 17 -8 84 -11 150 -8 161 -11 4376 -3 4367 4 -4 19 -38
34 -77 87 -225 117 -302 125 -320 5 -11 32 -81 60 -155 29 -74 67 -173 85
-220 18 -47 72 -186 120 -310 47 -124 102 -265 122 -315 19 -49 62 -160 95
-245 33 -85 64 -166 70 -180 6 -14 13 -34 15 -44 2 -11 7 -24 11 -30 5 -6 16
-31 25 -56 9 -25 22 -58 28 -75 7 -16 13 -32 14 -35 1 -3 7 -18 14 -35 7 -16
84 -217 172 -445 88 -228 164 -424 169 -435 12 -26 114 -288 115 -295 0 -3 36
-95 79 -205 43 -110 102 -261 131 -335 28 -74 56 -144 60 -155 5 -11 9 -22 9
-25 5 -21 41 -107 48 -115 4 -5 8 -18 8 -30 0 -12 4 -25 8 -30 5 -6 23 -48 41
-95 18 -47 36 -94 41 -105 43 -107 80 -202 80 -209 0 -4 6 -22 14 -39 8 -18
26 -61 39 -97 14 -36 46 -117 70 -180 25 -63 60 -154 78 -202 l34 -88 66 0
c66 0 71 2 84 40 1 3 5 12 8 20 4 8 34 89 67 180 33 91 63 172 67 180 3 8 7
20 9 25 3 14 64 176 75 200 11 25 89 237 92 250 2 6 12 35 24 65 12 30 45 118
73 195 28 77 55 149 60 160 8 19 52 137 205 550 36 99 79 214 95 255 15 41 54
145 86 230 31 85 68 184 81 220 14 36 36 97 49 135 14 39 29 79 33 90 25 60
120 314 126 335 8 29 187 506 206 547 10 24 19 46 19 50 0 10 147 406 167 451
8 18 16 40 18 50 2 9 34 96 70 192 37 96 77 204 90 240 43 118 75 205 84 225
9 20 42 109 87 235 l23 65 2 -105 c1 -58 0 -109 -1 -115 -1 -5 -2 -17 -2 -25
1 -59 1 -308 1 -320 0 -8 0 -80 0 -160 0 -80 0 -152 0 -160 0 -8 0 -80 0 -160
0 -80 0 -152 0 -160 0 -8 0 -80 0 -160 0 -80 0 -152 0 -160 0 -8 0 -80 0 -160
0 -80 0 -152 0 -160 0 -8 0 -80 0 -160 0 -80 0 -152 0 -160 0 -8 0 -80 0 -160
0 -80 0 -152 0 -160 0 -8 0 -80 0 -160 0 -80 0 -152 0 -160 0 -8 0 -80 0 -160
0 -80 0 -152 0 -160 0 -8 0 -80 0 -160 0 -80 0 -152 0 -160 0 -8 0 -80 0 -160
0 -80 0 -152 0 -160 0 -13 0 -260 0 -325 1 -315 -3 -410 -23 -551 -5 -35 -31
-116 -47 -147 -20 -37 -73 -89 -111 -108 -44 -22 -165 -56 -228 -63 -45 -6
-178 -18 -215 -20 -18 -1 -20 -9 -23 -84 l-3 -83 143 6 c237 11 401 14 888 14
470 0 591 -2 868 -14 l153 -6 -3 83 c-3 75 -5 83 -23 84 -53 3 -184 15 -202
18 -11 3 -38 7 -59 10 -22 4 -47 9 -56 12 -9 3 -26 7 -38 9 -68 13 -190 103
-190 140 0 8 -4 15 -9 15 -16 0 -43 108 -59 235 -9 71 -8 4407 0 4480 17 139
42 223 82 278 47 65 146 113 270 133 21 3 48 8 60 10 18 4 157 16 209 18 15 0
17 11 17 84 l0 84 -137 -7 c-76 -3 -247 -8 -381 -10 -134 -3 -247 -7 -252 -10
-6 -4 -10 -1 -10 5 0 6 -5 8 -11 5 -8 -6 -123 -7 -384 -5 -11 0 -66 0 -122 -1
l-102 -1 -17 -42 c-10 -22 -18 -47 -20 -53 -2 -12 -38 -110 -65 -178 -7 -16
-13 -34 -14 -40 -2 -5 -14 -39 -28 -75 -15 -36 -97 -254 -182 -485 -86 -231
-199 -534 -251 -672 -52 -139 -137 -369 -190 -510 -52 -142 -101 -271 -109
-288 -7 -16 -17 -43 -21 -60 -4 -16 -10 -34 -14 -40 -4 -5 -20 -48 -36 -95
-16 -47 -31 -87 -34 -90 -5 -5 -38 -94 -44 -120 -7 -27 -39 -105 -48 -114 -4
-6 -8 -16 -8 -23 0 -7 -64 -183 -141 -390 -78 -208 -142 -382 -144 -388 -1 -5
-7 -23 -14 -40 -7 -16 -24 -59 -37 -95 -14 -36 -34 -89 -46 -119 -12 -30 -21
-60 -21 -68 0 -7 -3 -13 -7 -13 -4 0 -7 -6 -7 -12 -1 -7 -13 -44 -28 -83 -35
-91 -60 -156 -129 -345 -73 -197 -70 -192 -87 -136 -7 25 -16 46 -20 46 -4 0
-9 14 -13 31 -3 17 -12 45 -21 62 -8 18 -30 75 -49 127 -19 52 -48 131 -66
175 -18 44 -33 85 -35 90 -1 6 -7 21 -12 35 -14 33 -151 396 -220 580 -30 80
-58 154 -63 165 -5 11 -23 58 -40 105 -17 47 -35 94 -40 105 -5 11 -23 58 -40
105 -17 47 -36 96 -42 110 -5 14 -43 113 -83 220 -41 107 -79 209 -86 225 -7
17 -13 32 -13 35 -1 3 -7 19 -13 35 -7 17 -30 80 -53 140 -23 61 -45 119 -50
130 -14 34 -35 90 -35 95 -1 3 -9 22 -18 44 -9 21 -17 41 -17 45 0 7 -36 100
-62 158 -10 24 -18 46 -18 50 0 6 -41 116 -115 308 -13 33 -48 125 -78 205
-71 187 -87 231 -97 255 -16 40 -120 315 -190 500 -22 61 -45 119 -50 130 -4
11 -17 45 -28 75 -11 30 -34 89 -50 130 l-29 75 -124 -4 c-68 -2 -186 -4 -261
-5 -76 -1 -138 -3 -138 -6 0 -3 -25 -5 -55 -5 -30 0 -55 4 -55 8 0 4 -8 4 -17
0 -10 -5 -67 -7 -128 -6 -240 5 -445 12 -547 18 l-108 7 0 -84z"/>
</g>
</svg>
