<svg width="223" height="87" xmlns="http://www.w3.org/2000/svg"><g fill="none" fill-rule="evenodd"><path d="M0 0h222.287v86.339H0z"/><path fill="#FFF" fill-rule="nonzero" d="M196.16 58.997v11.884h1.538v-9.152l6.075 3.5v5.652h1.538v-6.537l-7.613-4.403zm-38.991-17.965v1.153a4.442 4.442 0 0 0-3.038-1.153c-1.269 0-2.346.442-3.249 1.346-.904.903-1.346 1.98-1.346 3.249 0 1.249.442 2.326 1.346 3.23.904.904 1.98 1.345 3.249 1.345a4.442 4.442 0 0 0 3.038-1.153l-.02 1.403c0 .827-.288 1.538-.884 2.134-.596.596-1.307.904-2.134.904a3.05 3.05 0 0 1-1.519-.404l-.673-.384-.788 1.346.673.384a4.6 4.6 0 0 0 2.307.615c1.25 0 2.326-.442 3.23-1.346.904-.904 1.346-1.98 1.346-3.249v-9.42h-1.538Zm-.904 6.729a2.903 2.903 0 0 1-2.134.884c-.846 0-1.557-.288-2.153-.884a2.905 2.905 0 0 1-.885-2.134c0-.846.289-1.558.885-2.153.596-.597 1.307-.885 2.153-.885a2.9 2.9 0 0 1 2.134.885c.596.595.884 1.307.884 2.153 0 .826-.288 1.538-.884 2.134Zm-17.418-9.443v11.884h1.538V41.05l6.075 3.5v5.652h1.538v-6.537l-7.613-4.403zm-32.641-20.015h2.557c1.577 0 2.922.557 4.037 1.691 1.135 1.115 1.692 2.461 1.692 4.057 0 1.576-.557 2.922-1.692 4.037-1.115 1.115-2.46 1.673-4.037 1.673l-2.557-.019V18.303Zm-1.538 12.996h4.095c1.999 0 3.711-.711 5.114-2.115 1.423-1.422 2.134-3.134 2.134-5.133 0-2.019-.711-3.73-2.134-5.133-1.403-1.423-3.115-2.134-5.114-2.134h-4.095v14.515Zm-72.112-5.652V70.92h4.572V33.494l18.064 10.499V70.92h4.573V33.494l18.12 10.499V70.92h4.516V41.34L55.192 25.647v13.096zm-2.314 43.014c1.524-1.524 2.314-3.387 2.314-5.532s-.79-3.952-2.314-5.476-3.331-2.314-5.476-2.314-4.008.79-5.532 2.314-2.258 3.331-2.258 5.476.734 4.008 2.258 5.532 3.387 2.258 5.532 2.258 3.952-.734 5.476-2.258"/><path d="M52.878 68.661c1.524-1.524 2.314-3.387 2.314-5.532s-.79-3.952-2.314-5.476-3.331-2.314-5.476-2.314-4.008.79-5.532 2.314-2.258 3.331-2.258 5.476.734 4.008 2.258 5.532 3.387 2.258 5.532 2.258 3.952-.734 5.476-2.258m22.712 0c1.524-1.524 2.314-3.387 2.314-5.532s-.79-3.952-2.314-5.476-3.331-2.314-5.476-2.314-4.008.79-5.532 2.314-2.258 3.331-2.258 5.476.734 4.008 2.258 5.532 3.387 2.258 5.532 2.258 3.952-.734 5.476-2.258m84.639-13.66h1.538v15.88h-1.538zm-4.326 6.729h-3.095l-4.845 2.787v-9.516h-1.538v15.88h1.538v-4.576l7.94 4.576h3.076l-9.459-5.479zm-13.688-4.961a1.16 1.16 0 0 0 0 1.654 1.16 1.16 0 0 0 1.653 0 1.16 1.16 0 0 0 0-1.654 1.16 1.16 0 0 0-1.653 0m.058 4.941h1.538v9.171h-1.538zm-5.095 2.961c-.25-.154-.385-.365-.385-.634 0-.443.346-.769.75-.769.096 0 .212.038.366.115l.788-1.346a2.264 2.264 0 0 0-1.154-.307c-.634 0-1.173.23-1.615.672-.442.443-.673 1-.673 1.635 0 .826.462 1.576 1.154 1.98l1.807 1.038c.385.231.577.577.577 1.038 0 .692-.558 1.25-1.25 1.25-.25 0-.442-.058-.615-.173l-.788 1.346c.442.249.923.365 1.403.365.769 0 1.423-.269 1.961-.808.558-.538.827-1.192.827-1.98 0-1-.519-1.903-1.346-2.384l-1.807-1.038Zm-5.287-2.941v4.575c0 .827-.308 1.557-.904 2.153a2.902 2.902 0 0 1-2.134.885 2.946 2.946 0 0 1-2.153-.885 2.945 2.945 0 0 1-.884-2.153V61.73h-1.538v4.575c-.019 1.269.423 2.346 1.326 3.249.904.885 1.981 1.327 3.249 1.327s2.346-.442 3.25-1.327c.903-.903 1.345-1.98 1.345-3.249h-.019V61.73h-1.538Zm-27.223-6.268v15.419h1.557V58.134l6.152 3.576v9.171h1.558V58.134l6.171 3.576v9.171h1.538V60.807l-9.267-5.345v4.46zm65.462 13.496c-.5.269-1 .404-1.519.404a3.019 3.019 0 0 1-2.172-.884l6.517-3.769c-.327-.826-.904-1.518-1.73-2.095-.827-.596-1.711-.884-2.615-.884-1.269 0-2.345.442-3.249 1.345-.904.904-1.346 1.981-1.346 3.249-.019 1.25.423 2.346 1.327 3.25.904.904 1.999 1.345 3.268 1.345.807 0 1.577-.211 2.288-.615l.654-.384-.769-1.346-.654.384Zm-4.557-2.634c0-.826.289-1.538.885-2.134.596-.596 1.307-.903 2.153-.903.827 0 1.538.307 2.134.903l-5.076 2.942a4.237 4.237 0 0 1-.096-.808Zm17.303-3.287c-.884-.904-1.961-1.346-3.249-1.346-1.173 0-2.173.385-3.038 1.173v-7.863h-1.538v15.88h1.538v-1.173c.865.788 1.865 1.173 3.038 1.173 1.288 0 2.365-.442 3.249-1.346.904-.904 1.346-1.98 1.346-3.249 0-1.269-.442-2.346-1.346-3.249Zm-1.096 5.402a2.904 2.904 0 0 1-2.134.885 2.946 2.946 0 0 1-2.153-.885 2.945 2.945 0 0 1-.884-2.153c0-.827.288-1.538.884-2.134.596-.596 1.326-.904 2.153-.904s1.538.308 2.134.904c.596.596.904 1.307.904 2.134s-.308 1.557-.904 2.153Zm5.575-2.115c0-.826.289-1.538.885-2.134.596-.596 1.307-.903 2.153-.903.827 0 1.538.307 2.134.903l-5.075 2.942a4.164 4.164 0 0 1-.097-.808m4.557 2.634c-.5.269-1 .404-1.519.404a3.019 3.019 0 0 1-2.172-.884l6.517-3.769c-.327-.826-.904-1.518-1.73-2.095-.827-.596-1.711-.884-2.615-.884-1.269 0-2.345.442-3.249 1.345-.904.904-1.346 1.981-1.346 3.249-.019 1.25.423 2.346 1.327 3.25.903.903 1.999 1.345 3.268 1.345.808 0 1.577-.211 2.288-.615l.654-.384-.769-1.346-.654.384Zm-56.526-27.907v4.576c0 .826-.307 1.557-.903 2.153a2.904 2.904 0 0 1-2.134.884 2.949 2.949 0 0 1-2.154-.884 2.947 2.947 0 0 1-.884-2.153v-4.576h-1.538v4.576c-.019 1.269.423 2.345 1.326 3.249.904.884 1.981 1.326 3.25 1.326s2.345-.442 3.249-1.326c.903-.904 1.345-1.98 1.345-3.249h-.019v-4.576h-1.538Zm-12.054-3.96v3.018l-2.499 1.442v-4.46c0-.673.557-1.25 1.249-1.25v-1.538c-.788 0-1.442.269-1.999.827a2.671 2.671 0 0 0-.808 1.961v5.344l-1.249.731v1.788l1.249-.731v5.979h1.558v-6.863l2.499-1.442v8.305h1.538v-9.209l1.519-.865V38.34l-1.519.885v-2.134h-1.538Zm-9.036-1a1.16 1.16 0 0 0 0 1.653 1.159 1.159 0 0 0 1.653 0 1.159 1.159 0 0 0 0-1.653 1.16 1.16 0 0 0-1.653 0m.058 4.941h1.538v9.171h-1.538zm-4.806-3.941v3.037l-1.25.712v1.788l1.25-.731v8.305h1.538v-9.189l1.518-.866V38.36l-1.518.865v-2.134zm-7.902 2.845c-.481-.288-.731-.692-.731-1.25 0-.788.654-1.442 1.442-1.442.25 0 .481.058.712.193l.769-1.346a2.928 2.928 0 0 0-1.481-.385c-.826 0-1.518.289-2.114.885a2.844 2.844 0 0 0-.866 2.095 2.98 2.98 0 0 0 1.5 2.596l2.999 1.711a3.06 3.06 0 0 1 1.519 2.634c0 .826-.288 1.557-.884 2.153-.596.596-1.308.884-2.154.884a3.026 3.026 0 0 1-1.499-.403l-.769 1.345c.692.404 1.461.596 2.288.596 1.249 0 2.326-.442 3.229-1.326.904-.904 1.346-1.98 1.346-3.249 0-1.673-.903-3.153-2.288-3.98l-3.018-1.711Zm22.055-10.559c-.5.269-1 .404-1.519.404a3.02 3.02 0 0 1-2.172-.885l6.517-3.768c-.327-.827-.903-1.519-1.73-2.095-.827-.596-1.711-.885-2.615-.885-1.269 0-2.345.442-3.249 1.346-.904.904-1.346 1.98-1.346 3.249-.019 1.25.423 2.346 1.327 3.249.903.904 1.999 1.346 3.268 1.346.808 0 1.577-.211 2.288-.615l.654-.385-.769-1.346-.654.385Zm-4.556-2.634c0-.827.288-1.538.884-2.134.596-.596 1.307-.904 2.153-.904.827 0 1.538.308 2.134.904l-5.075 2.942a4.167 4.167 0 0 1-.096-.808Zm43.006-11.324h-1.538V31.3h1.538v-9.152l6.075 3.499V31.3h1.538v-6.537l-7.613-4.403zm-4.998 13.92a2.948 2.948 0 0 1-1.519.403 2.947 2.947 0 0 1-2.154-.884 2.907 2.907 0 0 1-.884-2.134c0-.827.289-1.538.884-2.134.596-.596 1.327-.904 2.154-.904.519 0 1.019.135 1.519.404l.672.385.769-1.346-.672-.385a4.588 4.588 0 0 0-2.288-.615c-1.269 0-2.346.442-3.249 1.346-.904.903-1.346 1.98-1.346 3.249 0 1.269.442 2.345 1.346 3.249.903.884 1.98 1.327 3.249 1.327.846 0 1.615-.212 2.288-.616l.672-.384-.769-1.346-.672.385Zm-10.805-4.249c-.25-.154-.384-.366-.384-.635 0-.442.346-.769.749-.769.096 0 .212.039.366.116l.788-1.346a2.253 2.253 0 0 0-1.154-.308 2.21 2.21 0 0 0-1.615.673 2.25 2.25 0 0 0-.673 1.634c0 .827.462 1.577 1.154 1.981l1.807 1.038c.385.23.577.576.577 1.038 0 .692-.558 1.25-1.25 1.25a1.05 1.05 0 0 1-.615-.174l-.788 1.346c.442.25.923.366 1.403.366.769 0 1.423-.27 1.961-.808.558-.538.827-1.192.827-1.98 0-1-.519-1.903-1.346-2.384l-1.807-1.038Zm-5.844-6.902v3.037l-1.25.712v1.788l1.25-.731V31.3h1.538v-9.19l1.518-.865v-1.788l-1.518.865v-2.134zm-4.518 3.96v4.576c0 .827-.308 1.557-.904 2.153a2.904 2.904 0 0 1-2.134.885 2.946 2.946 0 0 1-2.153-.885 2.945 2.945 0 0 1-.884-2.153v-4.576h-1.538v4.576c-.02 1.269.422 2.345 1.326 3.249.904.884 1.98 1.327 3.249 1.327 1.269 0 2.346-.443 3.249-1.327.904-.904 1.346-1.98 1.346-3.249h-.019v-4.576h-1.538Zm37.585 4.595c0-.827.288-1.538.884-2.134.596-.596 1.308-.904 2.154-.904.826 0 1.538.308 2.134.904l-5.076 2.942a4.167 4.167 0 0 1-.096-.808m4.556 2.634c-.5.269-.999.404-1.518.404a3.022 3.022 0 0 1-2.173-.885l6.518-3.768c-.327-.827-.904-1.519-1.731-2.095-.827-.596-1.711-.885-2.614-.885-1.269 0-2.346.442-3.25 1.346-.903.904-1.345 1.98-1.345 3.249-.02 1.25.423 2.346 1.326 3.249.904.904 2 1.346 3.269 1.346.807 0 1.576-.211 2.287-.615l.654-.385-.769-1.346-.654.385Z" fill="#FFF" fill-rule="nonzero"/></g></svg>